<?xml version="1.0" encoding="utf-8"?>
<!-- Generator: Adobe Illustrator 18.0.0, SVG Export Plug-In . SVG Version: 6.00 Build 0)  -->
<!DOCTYPE svg PUBLIC "-//W3C//DTD SVG 1.1//EN" "http://www.w3.org/Graphics/SVG/1.1/DTD/svg11.dtd">
<svg version="1.1" id="图层_1" xmlns="http://www.w3.org/2000/svg" xmlns:xlink="http://www.w3.org/1999/xlink" x="0px" y="0px"
	 viewBox="0 0 60 60" enable-background="new 0 0 60 60" xml:space="preserve">
<path fill="#FFFFFF" d="M43.6,32.8L14.2,3.4c-0.8-0.8-0.8-2.1,0-2.8l0,0c0.8-0.8,2.1-0.8,2.8,0L46.4,30C45.8,30.7,44.5,32,43.6,32.8
	z"/>
<path fill="#FFFFFF" d="M14.2,59.4L14.2,59.4c0.8,0.8,2.1,0.8,2.8,0l27.6-27.6c0.8-0.8,0.8-2.1,0-2.8v0c-0.8-0.8-2.1-0.8-2.8,0
	L14.2,56.6C13.4,57.4,13.4,58.6,14.2,59.4z"/>
</svg>
