<?xml version="1.0" encoding="utf-8"?>
<!-- Generator: Adobe Illustrator 18.0.0, SVG Export Plug-In . SVG Version: 6.00 Build 0)  -->
<!DOCTYPE svg PUBLIC "-//W3C//DTD SVG 1.1//EN" "http://www.w3.org/Graphics/SVG/1.1/DTD/svg11.dtd">
<svg version="1.1" id="图层_1" xmlns="http://www.w3.org/2000/svg" xmlns:xlink="http://www.w3.org/1999/xlink" x="0px" y="0px"
	 viewBox="0 0 60 60" enable-background="new 0 0 60 60" xml:space="preserve">
<path fill="#FFFFFF" d="M58.5,58.5L58.5,58.5c-1.9,1.9-5.1,1.9-7.1,0L1.5,8.5c-1.9-1.9-1.9-5.1,0-7.1l0,0c1.9-1.9,5.1-1.9,7.1,0
	l49.9,49.9C60.4,53.3,60.4,56.5,58.5,58.5z"/>
<path fill="#FFFFFF" d="M1.5,58.5L1.5,58.5c1.9,1.9,5.1,1.9,7.1,0L58.5,8.6c1.9-1.9,1.9-5.1,0-7.1l0,0c-1.9-1.9-5.1-1.9-7.1,0
	L1.5,51.4C-0.5,53.4-0.5,56.6,1.5,58.5z"/>
</svg>
