<?xml version="1.0" encoding="utf-8"?>
<!-- Generator: Adobe Illustrator 18.0.0, SVG Export Plug-In . SVG Version: 6.00 Build 0)  -->
<!DOCTYPE svg PUBLIC "-//W3C//DTD SVG 1.1//EN" "http://www.w3.org/Graphics/SVG/1.1/DTD/svg11.dtd">
<svg version="1.1" id="图层_1" xmlns="http://www.w3.org/2000/svg" xmlns:xlink="http://www.w3.org/1999/xlink" x="0px" y="0px"
	 viewBox="0 0 60 60" enable-background="new 0 0 60 60" xml:space="preserve">
<g>
	<path fill="#FFFFFF" d="M30,7c13.5,0,24.5,11,24.5,24.5S43.5,55.9,30,55.9S5.5,44.9,5.5,31.4S16.5,7,30,7 M30,3
		C14.3,3,1.5,15.7,1.5,31.4S14.3,59.9,30,59.9s28.5-12.8,28.5-28.5S45.7,3,30,3L30,3z"/>
</g>
<path fill="#FFFFFF" d="M28.7,36.1L28.7,36.1c-1.2,0-2.1-1-2.1-2.1V18.7c0-1.2,1-2.1,2.1-2.1h0c1.2,0,2.1,1,2.1,2.1v15.3
	C30.9,35.1,29.9,36.1,28.7,36.1z"/>
<path fill="#FFFFFF" d="M26.6,33.9L26.6,33.9c0-1.2,1-2.1,2.1-2.1H44c1.2,0,2.1,1,2.1,2.1v0c0,1.2-1,2.1-2.1,2.1H28.7
	C27.5,36.1,26.6,35.1,26.6,33.9z"/>
<path fill="#FFFFFF" d="M2.4,2.4c-3.2,3.2-3.2,8.3,0,11.5L13.9,2.4C10.7-0.7,5.5-0.7,2.4,2.4z"/>
<path fill="#FFFFFF" d="M57.6,2.4c3.2,3.2,3.2,8.3,0,11.5L46.1,2.4C49.3-0.7,54.5-0.7,57.6,2.4z"/>
</svg>
