<?xml version="1.0" encoding="utf-8"?>
<!-- Generator: Adobe Illustrator 18.0.0, SVG Export Plug-In . SVG Version: 6.00 Build 0)  -->
<!DOCTYPE svg PUBLIC "-//W3C//DTD SVG 1.1//EN" "http://www.w3.org/Graphics/SVG/1.1/DTD/svg11.dtd">
<svg version="1.1" id="图层_1" xmlns="http://www.w3.org/2000/svg" xmlns:xlink="http://www.w3.org/1999/xlink" x="0px" y="0px"
	 viewBox="0 0 60 60" enable-background="new 0 0 60 60" xml:space="preserve">
<g>
	<path fill="#FFFFFF" d="M27.5,4C40.4,4,51,14.5,51,27.5S40.4,51,27.5,51S4,40.4,4,27.5S14.5,4,27.5,4 M27.5,0C12.3,0,0,12.3,0,27.5
		S12.3,55,27.5,55S55,42.7,55,27.5S42.7,0,27.5,0L27.5,0z"/>
</g>
<path fill="#FFFFFF" d="M59.4,59.4L59.4,59.4c-0.8,0.8-2.1,0.8-2.8,0L44.9,47.8c-0.8-0.8-0.8-2.1,0-2.8l0,0c0.8-0.8,2.1-0.8,2.8,0
	l11.7,11.7C60.2,57.4,60.2,58.6,59.4,59.4z"/>
</svg>
